%TF.GenerationSoftware,KiCad,Pcbnew,7.0.6*%
%TF.CreationDate,2023-08-10T22:17:19+02:00*%
%TF.ProjectId,pcb,7063622e-6b69-4636-9164-5f7063625858,rev?*%
%TF.SameCoordinates,Original*%
%TF.FileFunction,Copper,L1,Top*%
%TF.FilePolarity,Positive*%
%FSLAX46Y46*%
G04 Gerber Fmt 4.6, Leading zero omitted, Abs format (unit mm)*
G04 Created by KiCad (PCBNEW 7.0.6) date 2023-08-10 22:17:19*
%MOMM*%
%LPD*%
G01*
G04 APERTURE LIST*
%TA.AperFunction,ComponentPad*%
%ADD10R,1.752600X1.752600*%
%TD*%
%TA.AperFunction,ComponentPad*%
%ADD11C,1.752600*%
%TD*%
%TA.AperFunction,ComponentPad*%
%ADD12C,2.286000*%
%TD*%
%TA.AperFunction,Conductor*%
%ADD13C,0.250000*%
%TD*%
G04 APERTURE END LIST*
D10*
%TO.P,J1,1,Pin_1*%
%TO.N,unconnected-(J1-Pin_1-Pad1)*%
X25030000Y-37620000D03*
D11*
%TO.P,J1,2,Pin_2*%
%TO.N,unconnected-(J1-Pin_2-Pad2)*%
X27570000Y-37620000D03*
%TO.P,J1,3,Pin_3*%
%TO.N,Net-(J1-Pin_3)*%
X30110000Y-37620000D03*
%TO.P,J1,4,Pin_4*%
%TO.N,unconnected-(J1-Pin_4-Pad4)*%
X32650000Y-37620000D03*
%TO.P,J1,5,Pin_5*%
%TO.N,unconnected-(J1-Pin_5-Pad5)*%
X35190000Y-37620000D03*
%TO.P,J1,6,Pin_6*%
%TO.N,unconnected-(J1-Pin_6-Pad6)*%
X37730000Y-37620000D03*
%TO.P,J1,7,Pin_7*%
%TO.N,unconnected-(J1-Pin_7-Pad7)*%
X40270000Y-37620000D03*
%TO.P,J1,8,Pin_8*%
%TO.N,unconnected-(J1-Pin_8-Pad8)*%
X42810000Y-37620000D03*
%TO.P,J1,9,Pin_9*%
%TO.N,Net-(J1-Pin_9)*%
X45350000Y-37620000D03*
%TO.P,J1,10,Pin_10*%
%TO.N,Net-(J1-Pin_10)*%
X47890000Y-37620000D03*
%TO.P,J1,11,Pin_11*%
%TO.N,Net-(J1-Pin_11)*%
X50430000Y-37620000D03*
%TO.P,J1,12,Pin_12*%
%TO.N,Net-(J1-Pin_12)*%
X52970000Y-37620000D03*
%TO.P,J1,13,Pin_13*%
%TO.N,unconnected-(J1-Pin_13-Pad13)*%
X52970000Y-22380000D03*
%TO.P,J1,14,Pin_14*%
%TO.N,unconnected-(J1-Pin_14-Pad14)*%
X50430000Y-22380000D03*
%TO.P,J1,15,Pin_15*%
%TO.N,unconnected-(J1-Pin_15-Pad15)*%
X47890000Y-22380000D03*
%TO.P,J1,16,Pin_16*%
%TO.N,unconnected-(J1-Pin_16-Pad16)*%
X45350000Y-22380000D03*
%TO.P,J1,17,Pin_17*%
%TO.N,unconnected-(J1-Pin_17-Pad17)*%
X42810000Y-22380000D03*
%TO.P,J1,18,Pin_18*%
%TO.N,unconnected-(J1-Pin_18-Pad18)*%
X40270000Y-22380000D03*
%TO.P,J1,19,Pin_19*%
%TO.N,unconnected-(J1-Pin_19-Pad19)*%
X37730000Y-22380000D03*
%TO.P,J1,20,Pin_20*%
%TO.N,unconnected-(J1-Pin_20-Pad20)*%
X35190000Y-22380000D03*
%TO.P,J1,21,Pin_21*%
%TO.N,unconnected-(J1-Pin_21-Pad21)*%
X32650000Y-22380000D03*
%TO.P,J1,22,Pin_22*%
%TO.N,unconnected-(J1-Pin_22-Pad22)*%
X30110000Y-22380000D03*
%TO.P,J1,23,Pin_23*%
%TO.N,unconnected-(J1-Pin_23-Pad23)*%
X27570000Y-22380000D03*
%TO.P,J1,24,Pin_24*%
%TO.N,unconnected-(J1-Pin_24-Pad24)*%
X25030000Y-22380000D03*
%TD*%
D12*
%TO.P,MX2,1,1*%
%TO.N,Net-(J1-Pin_3)*%
X75540000Y-47420000D03*
%TO.P,MX2,2,2*%
%TO.N,Net-(J1-Pin_11)*%
X69190000Y-49960000D03*
%TD*%
%TO.P,MX3,1,1*%
%TO.N,Net-(J1-Pin_3)*%
X55540000Y-47420000D03*
%TO.P,MX3,2,2*%
%TO.N,Net-(J1-Pin_10)*%
X49190000Y-49960000D03*
%TD*%
%TO.P,MX1,1,1*%
%TO.N,Net-(J1-Pin_3)*%
X95540000Y-47420000D03*
%TO.P,MX1,2,2*%
%TO.N,Net-(J1-Pin_12)*%
X89190000Y-49960000D03*
%TD*%
%TO.P,MX4,1,1*%
%TO.N,Net-(J1-Pin_3)*%
X35540000Y-47420000D03*
%TO.P,MX4,2,2*%
%TO.N,Net-(J1-Pin_9)*%
X29190000Y-49960000D03*
%TD*%
D13*
%TO.N,Net-(J1-Pin_9)*%
X45000000Y-42000000D02*
X41000000Y-42000000D01*
X45350000Y-41650000D02*
X45000000Y-42000000D01*
X40600000Y-49800000D02*
X40440000Y-49960000D01*
X40600000Y-42400000D02*
X40600000Y-49800000D01*
X40440000Y-49960000D02*
X29190000Y-49960000D01*
X41000000Y-42000000D02*
X40600000Y-42400000D01*
X45350000Y-37620000D02*
X45350000Y-41650000D01*
%TO.N,Net-(J1-Pin_12)*%
X100600000Y-40400000D02*
X100200000Y-40000000D01*
X100600000Y-49800000D02*
X100600000Y-40400000D01*
X100440000Y-49960000D02*
X100600000Y-49800000D01*
X53300000Y-40000000D02*
X52970000Y-39670000D01*
X100200000Y-40000000D02*
X53300000Y-40000000D01*
X89190000Y-49960000D02*
X100440000Y-49960000D01*
X52970000Y-39670000D02*
X52970000Y-37620000D01*
%TO.N,Net-(J1-Pin_11)*%
X50500000Y-37690000D02*
X50430000Y-37620000D01*
X50430000Y-40630000D02*
X50430000Y-37620000D01*
X50800000Y-41000000D02*
X50430000Y-40630000D01*
X80600000Y-49800000D02*
X80600000Y-41300000D01*
X80440000Y-49960000D02*
X80600000Y-49800000D01*
X80300000Y-41000000D02*
X50800000Y-41000000D01*
X69190000Y-49960000D02*
X80440000Y-49960000D01*
X80600000Y-41300000D02*
X80300000Y-41000000D01*
%TO.N,Net-(J1-Pin_10)*%
X60600000Y-49900000D02*
X60600000Y-42300000D01*
X60540000Y-49960000D02*
X60600000Y-49900000D01*
X49190000Y-49960000D02*
X60540000Y-49960000D01*
X48200000Y-42000000D02*
X47890000Y-41690000D01*
X60300000Y-42000000D02*
X48200000Y-42000000D01*
X60600000Y-42300000D02*
X60300000Y-42000000D01*
X47890000Y-41690000D02*
X47890000Y-37620000D01*
%TO.N,Net-(J1-Pin_3)*%
X75540000Y-47420000D02*
X68616967Y-47420000D01*
X95540000Y-47420000D02*
X88580000Y-47420000D01*
X30110000Y-47310000D02*
X30000000Y-47420000D01*
X66000000Y-60000000D02*
X46000000Y-60000000D01*
X30110000Y-37620000D02*
X30110000Y-47310000D01*
X30000000Y-47420000D02*
X35540000Y-47420000D01*
X66000000Y-50036967D02*
X66000000Y-60000000D01*
X28580000Y-47420000D02*
X30000000Y-47420000D01*
X68616967Y-47420000D02*
X66000000Y-50036967D01*
X88580000Y-47420000D02*
X86000000Y-50000000D01*
X48616967Y-47420000D02*
X46000000Y-50036967D01*
X86000000Y-50000000D02*
X86000000Y-60000000D01*
X46000000Y-50036967D02*
X46000000Y-60000000D01*
X55540000Y-47420000D02*
X48616967Y-47420000D01*
X46000000Y-60000000D02*
X26000000Y-60000000D01*
X26000000Y-60000000D02*
X26000000Y-50000000D01*
X26000000Y-50000000D02*
X28580000Y-47420000D01*
X86000000Y-60000000D02*
X66000000Y-60000000D01*
%TD*%
M02*
