M48
; DRILL file {KiCad 7.0.6} date Thu 10 Aug 2023 10:18:08 PM CEST
; FORMAT={-:-/ absolute / metric / decimal}
; #@! TF.CreationDate,2023-08-10T22:18:08+02:00
; #@! TF.GenerationSoftware,Kicad,Pcbnew,7.0.6
; #@! TF.FileFunction,NonPlated,1,2,NPTH
FMAT,2
METRIC
; #@! TA.AperFunction,NonPlated,NPTH,ComponentDrill
T1C1.702
; #@! TA.AperFunction,NonPlated,NPTH,ComponentDrill
T2C3.000
; #@! TA.AperFunction,NonPlated,NPTH,ComponentDrill
T3C3.988
%
G90
G05
T1
X27.92Y-52.5
X38.08Y-52.5
X47.92Y-52.5
X58.08Y-52.5
X67.92Y-52.5
X78.08Y-52.5
X87.92Y-52.5
X98.08Y-52.5
T2
X30.46Y-57.58
X36.81Y-55.04
X50.46Y-57.58
X56.81Y-55.04
X70.46Y-57.58
X76.81Y-55.04
X90.46Y-57.58
X96.81Y-55.04
T3
X33.0Y-52.5
X53.0Y-52.5
X73.0Y-52.5
X93.0Y-52.5
T0
M30
