M48
; DRILL file {KiCad 7.0.6} date Thu 10 Aug 2023 10:18:08 PM CEST
; FORMAT={-:-/ absolute / metric / decimal}
; #@! TF.CreationDate,2023-08-10T22:18:08+02:00
; #@! TF.GenerationSoftware,Kicad,Pcbnew,7.0.6
; #@! TF.FileFunction,Plated,1,2,PTH
FMAT,2
METRIC
; #@! TA.AperFunction,Plated,PTH,ComponentDrill
T1C1.092
; #@! TA.AperFunction,Plated,PTH,ComponentDrill
T2C1.499
%
G90
G05
T1
X25.03Y-22.38
X25.03Y-37.62
X27.57Y-22.38
X27.57Y-37.62
X30.11Y-22.38
X30.11Y-37.62
X32.65Y-22.38
X32.65Y-37.62
X35.19Y-22.38
X35.19Y-37.62
X37.73Y-22.38
X37.73Y-37.62
X40.27Y-22.38
X40.27Y-37.62
X42.81Y-22.38
X42.81Y-37.62
X45.35Y-22.38
X45.35Y-37.62
X47.89Y-22.38
X47.89Y-37.62
X50.43Y-22.38
X50.43Y-37.62
X52.97Y-22.38
X52.97Y-37.62
T2
X29.19Y-49.96
X35.54Y-47.42
X49.19Y-49.96
X55.54Y-47.42
X69.19Y-49.96
X75.54Y-47.42
X89.19Y-49.96
X95.54Y-47.42
T0
M30
